<?xml version="1.0" encoding="UTF-8" standalone="no"?>
<svg width="442px" height="357px" viewBox="0 0 442 357" version="1.1" xmlns="http://www.w3.org/2000/svg">
    <title>build_cache</title>
    <defs></defs>
    <g id="Training-Diagrams" stroke="none" stroke-width="1" fill="none" fill-rule="evenodd">
        <g id="build_cache">
            <g id="Page-1" transform="translate(92.000000, 220.000000)">
                <polygon id="Fill-1" fill="#FFFFFF"
                         points="89.0039083 26 68.9960917 26 66 20.1939839 69.8903197 11 88.1096803 11 92 20.1939839"></polygon>
                <polygon id="Stroke-2" stroke="#000000" stroke-linejoin="round"
                         points="89.888674 26 69.111326 26 66 20.1939839 70.0399473 11 88.9600527 11 93 20.1939839"></polygon>
                <polygon id="Fill-3" fill="#FFFFFF"
                         points="74.9176123 0 70.0526555 7.20673684 70.9525647 21.1501053 74.9176123 25.9796842 74.9244212 29.7972632 59.3309124 37.1128421 57 44 102 44 99.6702224 37.1128421 84.0744439 29.7972632 84.0835225 25.9796842 88.0474353 21.1501053 88.9473445 7.20673684 84.0835225 0"></polygon>
                <polygon id="Stroke-4" stroke="#000000" stroke-linejoin="round"
                         points="84.0744439 29.7961053 84.0823877 25.9785263 88.0474353 21.1489474 88.9473445 7.20673684 84.0823877 0 74.9176123 0 70.0526555 7.20673684 70.9525647 21.1489474 74.9176123 25.9785263 74.9244212 29.7961053 59.3309124 37.1116842 57 44 102 44 99.6690876 37.1116842"></polygon>
                <polygon id="Fill-9" fill="#FFFFFF"
                         points="79.5005577 0 74.9962426 0 70.2141725 7.39851412 70 12 79.5005577 6.17771174 89 12 88.786943 7.39851412 84.0048729 0"></polygon>
                <polygon id="Stroke-10" stroke="#000000" stroke-linejoin="round"
                         points="88.786943 7.39970282 84.0048729 0 79.5005577 0 74.9962426 0 70.2141725 7.39970282 70 12 79.5005577 6.17890045 89 12"></polygon>
                <polygon id="Fill-12"
                         points="17.9173556 3.16783333 14.217816 7.005 13.4898125 10.6461667 13.952255 20.0401667 17.9173556 25.002 17.9253682 29.0258333 2.33167146 36.7398333 0 44 45 44 42.6683285 36.7398333 27.0746318 29.0258333 27.0826444 25.002 31.047745 20.0401667 31.5113321 10.6461667 30.782184 7.005 27.0826444 2"></polygon>
                <polygon id="Stroke-13" stroke="#000000" stroke-linejoin="round"
                         points="27.0746318 29.1384211 27.0826444 25.1436842 31.047745 20.2203158 31.5101875 10.8957895 31.5101875 4.05263158 27.0746318 0 18.7855798 0 13.952255 4.05263158 13.4886679 10.8957895 13.952255 20.2203158 17.9173556 25.1436842 17.9253682 29.1384211 2.33167146 36.7932632 0 44 45 44 42.6683285 36.7932632"></polygon>
                <polyline id="Path-3" stroke="#000000"
                          points="13 10 21.1290323 8.36363636 27.516129 4 31 10"></polyline>
                <polyline id="Path-2" stroke="#000000" points="18 29 22.7058824 33 28 29"></polyline>
            </g>
            <g id="Page-1" transform="translate(98.000000, 63.000000)">
                <path d="M20,12 L20,32" id="Stroke-1" stroke="#000000"></path>
                <polygon id="Fill-2" fill="#FFFFFF" points="1 12 40 12 40 1 1 1"></polygon>
                <polygon id="Stroke-3" stroke="#000000" points="1 12 40 12 40 1 1 1"></polygon>
                <polygon id="Fill-5" fill="#FFFFFF" points="1 27 40 27 40 16 1 16"></polygon>
                <polygon id="Stroke-6" stroke="#000000" points="1 27 40 27 40 16 1 16"></polygon>
                <polygon id="Fill-8" fill="#FFFFFF" points="1 43 40 43 40 32 1 32"></polygon>
                <g id="Group-30">
                    <polygon id="Stroke-9" stroke="#000000"
                             points="0.569620253 43.4358974 39.3037975 43.4358974 39.3037975 32.1538462 0.569620253 32.1538462"></polygon>
                    <path
                        d="M33.3394177,4.13712821 C32.0816962,4.13712821 31.0609367,5.148 31.0609367,6.39353846 C31.0609367,7.63907692 32.0816962,8.64994872 33.3394177,8.64994872 C34.5971392,8.64994872 35.6178987,7.63907692 35.6178987,6.39353846 C35.6178987,5.148 34.5971392,4.13712821 33.3394177,4.13712821"
                        id="Fill-11" fill="#FFFFFF"></path>
                    <path
                        d="M33.3394177,4.13712821 C32.0816962,4.13712821 31.0609367,5.148 31.0609367,6.39353846 C31.0609367,7.63907692 32.0816962,8.64994872 33.3394177,8.64994872 C34.5971392,8.64994872 35.6178987,7.63907692 35.6178987,6.39353846 C35.6178987,5.148 34.5971392,4.13712821 33.3394177,4.13712821 Z"
                        id="Stroke-12" stroke="#000000" stroke-width="0.75"></path>
                    <path
                        d="M33.3394177,19.932 C32.0816962,19.932 31.0609367,20.9428718 31.0609367,22.1884103 C31.0609367,23.4339487 32.0816962,24.4448205 33.3394177,24.4448205 C34.5971392,24.4448205 35.6178987,23.4339487 35.6178987,22.1884103 C35.6178987,20.9428718 34.5971392,19.932 33.3394177,19.932"
                        id="Fill-13" fill="#FFFFFF"></path>
                    <path
                        d="M33.3394177,19.932 C32.0816962,19.932 31.0609367,20.9428718 31.0609367,22.1884103 C31.0609367,23.4339487 32.0816962,24.4448205 33.3394177,24.4448205 C34.5971392,24.4448205 35.6178987,23.4339487 35.6178987,22.1884103 C35.6178987,20.9428718 34.5971392,19.932 33.3394177,19.932 Z"
                        id="Stroke-14" stroke="#000000" stroke-width="0.75"></path>
                    <path
                        d="M33.3394177,35.7268718 C32.0816962,35.7268718 31.0609367,36.7377436 31.0609367,37.9832821 C31.0609367,39.2288205 32.0816962,40.2396923 33.3394177,40.2396923 C34.5971392,40.2396923 35.6178987,39.2288205 35.6178987,37.9832821 C35.6178987,36.7377436 34.5971392,35.7268718 33.3394177,35.7268718"
                        id="Fill-15" fill="#FFFFFF"></path>
                    <path
                        d="M33.3394177,35.7268718 C32.0816962,35.7268718 31.0609367,36.7377436 31.0609367,37.9832821 C31.0609367,39.2288205 32.0816962,40.2396923 33.3394177,40.2396923 C34.5971392,40.2396923 35.6178987,39.2288205 35.6178987,37.9832821 C35.6178987,36.7377436 34.5971392,35.7268718 33.3394177,35.7268718 Z"
                        id="Stroke-16" stroke="#000000" stroke-width="0.75"></path>
                    <path d="M70.0632911,12.4102564 L70.0632911,32.7179487" id="Stroke-17" stroke="#000000"></path>
                    <polygon id="Fill-18" fill="#FFFFFF"
                             points="50.6962025 11.8461538 89.4303797 11.8461538 89.4303797 0.564102564 50.6962025 0.564102564"></polygon>
                    <polygon id="Stroke-19" stroke="#000000"
                             points="50.6962025 11.8461538 89.4303797 11.8461538 89.4303797 0.564102564 50.6962025 0.564102564"></polygon>
                    <polygon id="Fill-20" fill="#FFFFFF"
                             points="50.6962025 27.6410256 89.4303797 27.6410256 89.4303797 16.3589744 50.6962025 16.3589744"></polygon>
                    <polygon id="Stroke-21" stroke="#000000"
                             points="50.6962025 27.6410256 89.4303797 27.6410256 89.4303797 16.3589744 50.6962025 16.3589744"></polygon>
                    <polygon id="Fill-22" fill="#FFFFFF"
                             points="50.6962025 43.4358974 89.4303797 43.4358974 89.4303797 32.1538462 50.6962025 32.1538462"></polygon>
                    <polygon id="Stroke-23" stroke="#000000"
                             points="50.6962025 43.4358974 89.4303797 43.4358974 89.4303797 32.1538462 50.6962025 32.1538462"></polygon>
                    <path
                        d="M83.466,4.13712821 C82.2082785,4.13712821 81.187519,5.148 81.187519,6.39353846 C81.187519,7.63907692 82.2082785,8.64994872 83.466,8.64994872 C84.7237215,8.64994872 85.744481,7.63907692 85.744481,6.39353846 C85.744481,5.148 84.7237215,4.13712821 83.466,4.13712821"
                        id="Fill-24" fill="#FFFFFF"></path>
                    <path
                        d="M83.466,4.13712821 C82.2082785,4.13712821 81.187519,5.148 81.187519,6.39353846 C81.187519,7.63907692 82.2082785,8.64994872 83.466,8.64994872 C84.7237215,8.64994872 85.744481,7.63907692 85.744481,6.39353846 C85.744481,5.148 84.7237215,4.13712821 83.466,4.13712821 Z"
                        id="Stroke-25" stroke="#000000" stroke-width="0.75"></path>
                    <path
                        d="M83.466,19.932 C82.2082785,19.932 81.187519,20.9428718 81.187519,22.1884103 C81.187519,23.4339487 82.2082785,24.4448205 83.466,24.4448205 C84.7237215,24.4448205 85.744481,23.4339487 85.744481,22.1884103 C85.744481,20.9428718 84.7237215,19.932 83.466,19.932"
                        id="Fill-26" fill="#FFFFFF"></path>
                    <path
                        d="M83.466,19.932 C82.2082785,19.932 81.187519,20.9428718 81.187519,22.1884103 C81.187519,23.4339487 82.2082785,24.4448205 83.466,24.4448205 C84.7237215,24.4448205 85.744481,23.4339487 85.744481,22.1884103 C85.744481,20.9428718 84.7237215,19.932 83.466,19.932 Z"
                        id="Stroke-27" stroke="#000000" stroke-width="0.75"></path>
                    <path
                        d="M83.466,35.7268718 C82.2082785,35.7268718 81.187519,36.7377436 81.187519,37.9832821 C81.187519,39.2288205 82.2082785,40.2396923 83.466,40.2396923 C84.7237215,40.2396923 85.744481,39.2288205 85.744481,37.9832821 C85.744481,36.7377436 84.7237215,35.7268718 83.466,35.7268718"
                        id="Fill-28" fill="#FFFFFF"></path>
                    <path
                        d="M83.466,35.7268718 C82.2082785,35.7268718 81.187519,36.7377436 81.187519,37.9832821 C81.187519,39.2288205 82.2082785,40.2396923 83.466,40.2396923 C84.7237215,40.2396923 85.744481,39.2288205 85.744481,37.9832821 C85.744481,36.7377436 84.7237215,35.7268718 83.466,35.7268718 Z"
                        id="Stroke-29" stroke="#000000" stroke-width="0.75"></path>
                </g>
            </g>
            <g id="Group" transform="translate(300.000000, 88.000000)" font-size="14" font-family="Lato, sans-serif"
               fill="#000000" font-weight="normal">
                <g id="Remote-cache">
                    <text>
                        <tspan x="0.5" y="14">Remote cache</tspan>
                    </text>
                </g>
            </g>
            <polygon id="Polygon-Copy-2" stroke="#000000"
                     points="345 34 400 66.5 400 131.5 345 164 290 131.5 290 66.5"></polygon>
            <g id="Group" transform="translate(307.000000, 247.000000)" font-size="14" font-family="Lato, sans-serif"
               fill="#000000" font-weight="normal">
                <g id="Local-cache">
                    <text>
                        <tspan x="0" y="14">Local cache</tspan>
                    </text>
                </g>
            </g>
            <polygon id="Polygon-Copy-2" stroke="#000000"
                     points="344 193 399 225.5 399 290.5 344 323 289 290.5 289 225.5"></polygon>
            <polyline id="Path-4" stroke="#000000" points="167 249.5 171.5 252.5 176 249"></polyline>
            <text id="CI" fill="#000000" font-family="Lato, sans-serif" font-size="14" font-weight="normal">
                <tspan x="135" y="131">CI</tspan>
            </text>
            <text id="Developer" fill="#000000" font-family="Lato, sans-serif" font-size="14" font-weight="normal">
                <tspan x="110" y="288">Developer</tspan>
            </text>
            <g id="Stroke-622-+-Stroke-623-Copy"
               transform="translate(241.500000, 95.000000) rotate(-270.000000) translate(-241.500000, -95.000000) translate(230.500000, 68.500000)"
               stroke="#0B0C0A" stroke-linecap="round" stroke-linejoin="round">
                <path d="M11,51.5025318 L11,2.12841385" id="Stroke-622"></path>
                <polyline id="Stroke-623" points="0 40 11 52.5 22 40"></polyline>
                <polyline id="Stroke-623-Copy"
                          transform="translate(11.000000, 6.804687) rotate(-180.000000) translate(-11.000000, -6.804687) "
                          points="-2.22044605e-15 0.5546875 11 13.0546875 22 0.5546875"></polyline>
            </g>
            <g id="Stroke-622-+-Stroke-623-Copy-2"
               transform="translate(241.500000, 256.000000) rotate(-270.000000) translate(-241.500000, -256.000000) translate(230.500000, 229.500000)"
               stroke="#0B0C0A" stroke-linecap="round" stroke-linejoin="round">
                <path d="M11,51.5025318 L11,2.12841385" id="Stroke-622"></path>
                <polyline id="Stroke-623" points="0 40 11 52.5 22 40"></polyline>
                <polyline id="Stroke-623-Copy"
                          transform="translate(11.000000, 6.804687) rotate(-180.000000) translate(-11.000000, -6.804687) "
                          points="-2.22044605e-15 0.5546875 11 13.0546875 22 0.5546875"></polyline>
            </g>
            <g id="Stroke-622-+-Stroke-623-Copy-5"
               transform="translate(237.130013, 170.170127) rotate(-126.000000) translate(-237.130013, -170.170127) translate(226.130013, 118.670127)"
               stroke="#0B0C0A" stroke-linecap="round" stroke-linejoin="round">
                <path d="M11,102.969133 L11,0.498792278" id="Stroke-622"></path>
                <polyline id="Stroke-623-Copy"
                          transform="translate(11.000000, 6.250000) rotate(-180.000000) translate(-11.000000, -6.250000) "
                          points="2.84217094e-14 0 11 12.5 22 0"></polyline>
            </g>
        </g>
    </g>
</svg>
