<svg viewBox="0 0 90 66.06" xmlns="http://www.w3.org/2000/svg" xmlns:xlink="http://www.w3.org/1999/xlink"><linearGradient id="a" gradientUnits="userSpaceOnUse" x1="1.5" x2="88.3" y1="29.09" y2="38.21"><stop offset="0" stop-color="#06a0ce"/><stop offset="1" stop-color="#51cbbf"/></linearGradient><path d="m85.11 4.18a14.27 14.27 0 0 0 -19.83-.34 1.38 1.38 0 0 0 0 2l1.72 1.76a1.36 1.36 0 0 0 1.78.12 8.18 8.18 0 0 1 10.72 12.34c-11.33 11.32-26.45-20.42-60.77-4.06a4.65 4.65 0 0 0 -2 6.54l5.89 10.17a4.64 4.64 0 0 0 6.3 1.73l.14-.08-.11.08 2.58-1.44a60.29 60.29 0 0 0 8.22-6.13 1.44 1.44 0 0 1 1.87-.06 1.34 1.34 0 0 1 .06 2 61.61 61.61 0 0 1 -8.68 6.53h-.09l-2.61 1.46a7.34 7.34 0 0 1 -3.61.94 7.45 7.45 0 0 1 -6.47-3.71l-5.57-9.61c-10.65 7.58-17.19 22.14-13.65 40.58a1.36 1.36 0 0 0 1.33 1.11h6.28a1.36 1.36 0 0 0 1.39-1.24 9.29 9.29 0 0 1 18.42 0 1.35 1.35 0 0 0 1.34 1.19h6.14a1.36 1.36 0 0 0 1.34-1.19 9.29 9.29 0 0 1 18.42 0 1.36 1.36 0 0 0 1.34 1.19h6.1a1.36 1.36 0 0 0 1.36-1.34c.14-8.6 2.46-18.48 9.07-23.43 22.9-17.13 16.88-31.81 11.58-37.11zm-23.35 25.87-4.37-2.19a2.74 2.74 0 1 1 4.37 2.2z" fill="url(#a)"/></svg>